<mxfile host="65bd71144e">
    <diagram id="IPCV-q_W9AfFzd8rzwXa" name="Page-1">
        <mxGraphModel dx="996" dy="575" grid="1" gridSize="10" guides="1" tooltips="1" connect="1" arrows="1" fold="1" page="1" pageScale="1" pageWidth="827" pageHeight="1169" math="0" shadow="0">
            <root>
                <mxCell id="0"/>
                <mxCell id="1" parent="0"/>
                <object label="gymnasiums" id-gymnasium="" id="12">
                    <mxCell style="swimlane;fontSize=17;fontColor=#FFFFFF;startSize=60;" vertex="1" parent="1">
                        <mxGeometry x="70" y="160" width="200" height="230" as="geometry"/>
                    </mxCell>
                </object>
                <mxCell id="13" value="id-gymnasiums" style="text;html=1;align=center;verticalAlign=middle;resizable=0;points=[];autosize=1;strokeColor=none;fontSize=17;fontColor=#FFFFFF;" vertex="1" parent="12">
                    <mxGeometry y="70" width="130" height="30" as="geometry"/>
                </mxCell>
                <mxCell id="14" value="name" style="text;html=1;align=center;verticalAlign=middle;resizable=0;points=[];autosize=1;strokeColor=none;fontSize=17;fontColor=#FFFFFF;" vertex="1" parent="12">
                    <mxGeometry y="100" width="60" height="30" as="geometry"/>
                </mxCell>
                <mxCell id="15" value="adress" style="text;html=1;align=center;verticalAlign=middle;resizable=0;points=[];autosize=1;strokeColor=none;fontSize=17;fontColor=#FFFFFF;" vertex="1" parent="12">
                    <mxGeometry x="-5" y="140" width="70" height="30" as="geometry"/>
                </mxCell>
                <mxCell id="16" value="phone" style="text;html=1;align=center;verticalAlign=middle;resizable=0;points=[];autosize=1;strokeColor=none;fontSize=17;fontColor=#FFFFFF;" vertex="1" parent="12">
                    <mxGeometry y="180" width="60" height="30" as="geometry"/>
                </mxCell>
                <object label="member" id-gymnasium="" id="17">
                    <mxCell style="swimlane;fontSize=17;fontColor=#FFFFFF;startSize=60;" vertex="1" parent="1">
                        <mxGeometry x="590" y="160" width="200" height="280" as="geometry"/>
                    </mxCell>
                </object>
                <mxCell id="18" value="id-member" style="text;html=1;align=center;verticalAlign=middle;resizable=0;points=[];autosize=1;strokeColor=none;fontSize=17;fontColor=#FFFFFF;" vertex="1" parent="17">
                    <mxGeometry y="70" width="100" height="30" as="geometry"/>
                </mxCell>
                <mxCell id="19" value="firstName" style="text;html=1;align=center;verticalAlign=middle;resizable=0;points=[];autosize=1;strokeColor=none;fontSize=17;fontColor=#FFFFFF;" vertex="1" parent="17">
                    <mxGeometry y="100" width="90" height="30" as="geometry"/>
                </mxCell>
                <mxCell id="20" value="lastName" style="text;html=1;align=center;verticalAlign=middle;resizable=0;points=[];autosize=1;strokeColor=none;fontSize=17;fontColor=#FFFFFF;" vertex="1" parent="17">
                    <mxGeometry y="140" width="90" height="30" as="geometry"/>
                </mxCell>
                <mxCell id="21" value="adress" style="text;html=1;align=center;verticalAlign=middle;resizable=0;points=[];autosize=1;strokeColor=none;fontSize=17;fontColor=#FFFFFF;" vertex="1" parent="17">
                    <mxGeometry y="170" width="70" height="30" as="geometry"/>
                </mxCell>
                <mxCell id="22" value="date-of-birth" style="text;html=1;align=center;verticalAlign=middle;resizable=0;points=[];autosize=1;strokeColor=none;fontSize=17;fontColor=#FFFFFF;" vertex="1" parent="17">
                    <mxGeometry y="200" width="110" height="30" as="geometry"/>
                </mxCell>
                <mxCell id="23" value="sexe" style="text;html=1;align=center;verticalAlign=middle;resizable=0;points=[];autosize=1;strokeColor=none;fontSize=17;fontColor=#FFFFFF;" vertex="1" parent="17">
                    <mxGeometry x="10" y="240" width="50" height="30" as="geometry"/>
                </mxCell>
                <object label="session" id-gymnasium="" id="24">
                    <mxCell style="swimlane;fontSize=17;fontColor=#FFFFFF;startSize=60;" vertex="1" parent="1">
                        <mxGeometry x="80" y="595" width="200" height="230" as="geometry"/>
                    </mxCell>
                </object>
                <mxCell id="25" value="type-of-sport" style="text;html=1;align=center;verticalAlign=middle;resizable=0;points=[];autosize=1;strokeColor=none;fontSize=17;fontColor=#FFFFFF;" vertex="1" parent="24">
                    <mxGeometry y="105" width="110" height="30" as="geometry"/>
                </mxCell>
                <mxCell id="26" value="horaire" style="text;html=1;align=center;verticalAlign=middle;resizable=0;points=[];autosize=1;strokeColor=none;fontSize=17;fontColor=#FFFFFF;" vertex="1" parent="24">
                    <mxGeometry y="145" width="70" height="30" as="geometry"/>
                </mxCell>
                <mxCell id="54" value="id-session" style="text;html=1;align=center;verticalAlign=middle;resizable=0;points=[];autosize=1;strokeColor=none;fontSize=17;fontColor=#FFFFFF;" vertex="1" parent="24">
                    <mxGeometry y="65" width="90" height="30" as="geometry"/>
                </mxCell>
                <object label="coache" id-gymnasium="" id="29">
                    <mxCell style="swimlane;fontSize=17;fontColor=#FFFFFF;startSize=60;" vertex="1" parent="1">
                        <mxGeometry x="600" y="590" width="200" height="260" as="geometry"/>
                    </mxCell>
                </object>
                <mxCell id="30" value="id-coache" style="text;html=1;align=center;verticalAlign=middle;resizable=0;points=[];autosize=1;strokeColor=none;fontSize=17;fontColor=#FFFFFF;" vertex="1" parent="29">
                    <mxGeometry y="70" width="90" height="30" as="geometry"/>
                </mxCell>
                <mxCell id="31" value="firstName" style="text;html=1;align=center;verticalAlign=middle;resizable=0;points=[];autosize=1;strokeColor=none;fontSize=17;fontColor=#FFFFFF;" vertex="1" parent="29">
                    <mxGeometry y="100" width="90" height="30" as="geometry"/>
                </mxCell>
                <mxCell id="32" value="lastName" style="text;html=1;align=center;verticalAlign=middle;resizable=0;points=[];autosize=1;strokeColor=none;fontSize=17;fontColor=#FFFFFF;" vertex="1" parent="29">
                    <mxGeometry y="140" width="90" height="30" as="geometry"/>
                </mxCell>
                <mxCell id="33" value="age" style="text;html=1;align=center;verticalAlign=middle;resizable=0;points=[];autosize=1;strokeColor=none;fontSize=17;fontColor=#FFFFFF;" vertex="1" parent="29">
                    <mxGeometry x="10" y="180" width="40" height="30" as="geometry"/>
                </mxCell>
                <mxCell id="34" value="speciality" style="text;html=1;align=center;verticalAlign=middle;resizable=0;points=[];autosize=1;strokeColor=none;fontSize=17;fontColor=#FFFFFF;" vertex="1" parent="29">
                    <mxGeometry y="220" width="90" height="30" as="geometry"/>
                </mxCell>
                <mxCell id="38" value="register" style="ellipse;whiteSpace=wrap;html=1;fontSize=17;fontColor=#FFFFFF;" vertex="1" parent="1">
                    <mxGeometry x="370" y="250" width="120" height="60" as="geometry"/>
                </mxCell>
                <mxCell id="40" value="" style="endArrow=none;html=1;fontSize=17;fontColor=#FFFFFF;exitX=1;exitY=0.5;exitDx=0;exitDy=0;" edge="1" parent="1">
                    <mxGeometry width="50" height="50" relative="1" as="geometry">
                        <mxPoint x="490" y="279.5" as="sourcePoint"/>
                        <mxPoint x="590" y="279.5" as="targetPoint"/>
                        <Array as="points">
                            <mxPoint x="560" y="279.5"/>
                        </Array>
                    </mxGeometry>
                </mxCell>
                <mxCell id="42" value="" style="endArrow=none;html=1;fontSize=17;fontColor=#FFFFFF;exitX=1;exitY=0.5;exitDx=0;exitDy=0;" edge="1" parent="1">
                    <mxGeometry width="50" height="50" relative="1" as="geometry">
                        <mxPoint x="270" y="279.5" as="sourcePoint"/>
                        <mxPoint x="370" y="279.5" as="targetPoint"/>
                        <Array as="points">
                            <mxPoint x="340" y="279.5"/>
                        </Array>
                    </mxGeometry>
                </mxCell>
                <mxCell id="45" value="" style="endArrow=none;html=1;fontSize=17;fontColor=#FFFFFF;exitX=0.5;exitY=0;exitDx=0;exitDy=0;entryX=-0.017;entryY=0.617;entryDx=0;entryDy=0;entryPerimeter=0;" edge="1" parent="1" source="24">
                    <mxGeometry width="50" height="50" relative="1" as="geometry">
                        <mxPoint x="180" y="520" as="sourcePoint"/>
                        <mxPoint x="327.96000000000004" y="497.02" as="targetPoint"/>
                        <Array as="points">
                            <mxPoint x="250" y="520"/>
                        </Array>
                    </mxGeometry>
                </mxCell>
                <mxCell id="46" value="" style="endArrow=none;html=1;fontSize=17;fontColor=#FFFFFF;exitX=0.61;exitY=-0.01;exitDx=0;exitDy=0;exitPerimeter=0;" edge="1" parent="1">
                    <mxGeometry width="50" height="50" relative="1" as="geometry">
                        <mxPoint x="403.20000000000005" y="459.4000000000001" as="sourcePoint"/>
                        <mxPoint x="590" y="360" as="targetPoint"/>
                        <Array as="points">
                            <mxPoint x="560" y="360"/>
                        </Array>
                    </mxGeometry>
                </mxCell>
                <mxCell id="48" value="led" style="ellipse;whiteSpace=wrap;html=1;fontSize=17;fontColor=#FFFFFF;" vertex="1" parent="1">
                    <mxGeometry x="354" y="690" width="120" height="60" as="geometry"/>
                </mxCell>
                <mxCell id="50" value="" style="endArrow=none;html=1;fontSize=17;fontColor=#FFFFFF;entryX=-0.013;entryY=0.677;entryDx=0;entryDy=0;entryPerimeter=0;" edge="1" parent="1" target="48">
                    <mxGeometry width="50" height="50" relative="1" as="geometry">
                        <mxPoint x="280" y="730" as="sourcePoint"/>
                        <mxPoint x="330" y="680" as="targetPoint"/>
                        <Array as="points">
                            <mxPoint x="310" y="731"/>
                            <mxPoint x="330" y="731"/>
                        </Array>
                    </mxGeometry>
                </mxCell>
                <mxCell id="53" value="" style="endArrow=none;html=1;fontSize=17;fontColor=#FFFFFF;" edge="1" parent="1">
                    <mxGeometry width="50" height="50" relative="1" as="geometry">
                        <mxPoint x="474" y="730" as="sourcePoint"/>
                        <mxPoint x="600" y="730" as="targetPoint"/>
                    </mxGeometry>
                </mxCell>
                <mxCell id="55" value="1..n" style="text;html=1;align=center;verticalAlign=middle;resizable=0;points=[];autosize=1;strokeColor=none;fontSize=17;fontColor=#FFFFFF;" vertex="1" parent="1">
                    <mxGeometry x="270" y="250" width="40" height="30" as="geometry"/>
                </mxCell>
                <mxCell id="56" value="1..n" style="text;html=1;align=center;verticalAlign=middle;resizable=0;points=[];autosize=1;strokeColor=none;fontSize=17;fontColor=#FFFFFF;" vertex="1" parent="1">
                    <mxGeometry x="540" y="250" width="40" height="30" as="geometry"/>
                </mxCell>
                <mxCell id="57" value="1..20" style="text;html=1;align=center;verticalAlign=middle;resizable=0;points=[];autosize=1;strokeColor=none;fontSize=17;fontColor=#FFFFFF;" vertex="1" parent="1">
                    <mxGeometry x="145" y="555" width="50" height="30" as="geometry"/>
                </mxCell>
                <mxCell id="58" value="1..n" style="text;html=1;align=center;verticalAlign=middle;resizable=0;points=[];autosize=1;strokeColor=none;fontSize=17;fontColor=#FFFFFF;" vertex="1" parent="1">
                    <mxGeometry x="530" y="330" width="40" height="30" as="geometry"/>
                </mxCell>
                <mxCell id="59" value="1..2" style="text;html=1;align=center;verticalAlign=middle;resizable=0;points=[];autosize=1;strokeColor=none;fontSize=17;fontColor=#FFFFFF;" vertex="1" parent="1">
                    <mxGeometry x="290" y="690" width="40" height="30" as="geometry"/>
                </mxCell>
                <mxCell id="60" value="1..1" style="text;html=1;align=center;verticalAlign=middle;resizable=0;points=[];autosize=1;strokeColor=none;fontSize=17;fontColor=#FFFFFF;" vertex="1" parent="1">
                    <mxGeometry x="550" y="695" width="40" height="30" as="geometry"/>
                </mxCell>
                <mxCell id="61" value="accommodate" style="ellipse;whiteSpace=wrap;html=1;fontSize=17;fontColor=#FFFFFF;" vertex="1" parent="1">
                    <mxGeometry x="310" y="450" width="120" height="60" as="geometry"/>
                </mxCell>
            </root>
        </mxGraphModel>
    </diagram>
</mxfile>